<svg xmlns="http://www.w3.org/2000/svg" xmlns:xlink="http://www.w3.org/1999/xlink" id="Layer_1" x="0px" y="0px" viewBox="0 0 432 180" style="enable-background:new 0 0 432 180;" xml:space="preserve"><style type="text/css">	.st0{fill:#36517F;}	.st1{fill:#158FCF;}</style><g>	<path class="st0" d="M130.5,78c-6.6,0-11.5,1.8-14.6,3.2l-0.5,0.2l2.8,6.5l0.5-0.2c0.2-0.1,5.1-2.4,11.3-2.4c6.1,0,9.8,2.8,9.8,7.4  v4.1c-3-2.2-7.1-3.5-11.5-3.5c-7.1,0-17.6,3.7-17.6,13.9c0,7.1,4.8,15.5,18.5,15.5c10.4,0,16.1-3.6,18.6-5.7l0.2-0.1V94.5  C148,82.9,142.7,78,130.5,78z M139.8,104.5v8.2c-2.6,1.7-6.1,2.6-10.1,2.6c-7.1,0-10.3-3.9-10.3-7.6c0-3.6,3.1-7.1,9.9-7.1  C134.6,100.6,138.3,103.2,139.8,104.5z"></path>	<path class="st0" d="M177.5,78c-6.1,0-10.6,2.8-13.1,4.9v-3.8H156v42.3h8.4V90.6c1.7-1.9,5.9-4.9,10.6-4.9c6.7,0,9.2,3.2,9.2,11.7  v24h8.4V93.7C192.5,83.3,187.4,78,177.5,78z"></path>	<path class="st0" d="M91.7,91.8l-0.1,0.1v0l0,0v0L91.7,91.8c-4.7-2.3-8.7-4.3-8.7-7.9c0-2.7,2.1-5.4,6.8-5.4c4.6,0,8.9,3.5,10,4.7  l0.7,0.7l4.2-7.4l-0.4-0.4c-2.7-2.7-8.3-5.8-15.5-5.8c-9.2,0-16.2,6.1-16.2,14.1c0,7.6,7,11.3,13.1,14.5c4.9,2.6,9.1,4.8,9.1,8.4  c0,6.7-6.2,7.2-8.1,7.2l-15.9,0l-1.5,0v8.2l17.8,0c10.8,0,18.1-6.3,18.1-15.6C105.1,98.4,97.9,94.9,91.7,91.8z"></path>	<path class="st0" d="M222.8,78c-6.2,0-11.9,2-16.1,5.7c-4.6,4.1-7.1,9.8-7.1,16.6c0,8.3,3.4,13.5,6.3,16.4  c3.7,3.7,8.8,5.9,13.8,5.9c4.4,0,9.2-2,12.4-5.1v6.5c0,8.4-3.9,12.7-11.6,12.7c-5.9,0-11.3-2.3-14.1-4.2l-0.4-0.3l-3.8,6.4l0.4,0.3  c2.8,1.9,8.9,5,17.9,5c3.8,0,9.2-0.8,13.5-4.4c4.3-3.6,6.4-9.1,6.4-16.4V83l-0.2-0.1C235.2,79.6,229.5,78,222.8,78z M232.1,87.6  v21.5c-2.2,3.6-6.6,6.1-10.8,6.1c-9.4,0-12.9-8.9-12.9-14.9c0-11.1,7.8-15,14.5-15C227.4,85.3,230.7,86.9,232.1,87.6z"></path>	<path class="st0" d="M270.3,78c-12.8,0-22.8,9.8-22.8,22.3c0,12.5,10,22.3,22.7,22.3c12.7,0,22.6-9.8,22.6-22.3  C292.8,87.8,282.9,78,270.3,78z M284,100.4c0,9-5.6,15.1-14,15.1c-7.6,0-13.8-6.7-13.8-14.9c0-9,5.7-15.3,14-15.3  C278,85.3,284,91.9,284,100.4z"></path>	<path class="st0" d="M346.2,78c-6.3,0-11.8,3.6-14.8,6c-2.4-4-6.1-6-11-6c-6,0-10.6,3-12.9,4.9v-3.9H299v42.3h8.4V90.5  c1.6-1.7,5.7-4.8,10-4.8c5.4,0,7.8,2.6,7.8,8.4v27.3h8.4v-31c2.2-2.2,6.1-4.7,10.3-4.7c5.2,0,7.6,2.6,7.6,8.6v27.1h8.4V93.4  C359.9,83.3,355.1,78,346.2,78z"></path>	<path class="st0" d="M385.6,78c-6.6,0-11.5,1.8-14.6,3.2l-0.5,0.2l2.8,6.5l0.5-0.2c0.2-0.1,5.1-2.4,11.3-2.4c6.1,0,9.8,2.8,9.8,7.4  v4.1c-3-2.2-7.1-3.5-11.5-3.5c-7.1,0-17.6,3.7-17.6,13.9c0,7.1,4.8,15.5,18.5,15.5c10.4,0,16.1-3.6,18.6-5.7l0.2-0.1V94.5  C403.1,82.9,397.9,78,385.6,78z M395,104.5v8.2c-2.6,1.7-6.1,2.6-10.1,2.6c-7.1,0-10.3-3.9-10.3-7.6c0-3.6,3.1-7.1,9.9-7.1  C389.7,100.6,393.4,103.2,395,104.5z"></path>	<path class="st1" d="M115.1,68.4c0.8-0.2,1.7-0.4,2.5-0.4l1.4-0.1c0.1,0,0.2,0,0.2,0c3.8,0,7.2,1.2,10,3.3c4.3-1,7.8-1.1,10.7-0.5  c-4.1-6.1-10.9-10.3-18.7-10.9c-5-14.1-18.4-23.6-33.4-23.6C70,36.1,54.6,50,52.6,67.8c-13.6,1.9-23.7,13.6-23.7,27.4  c0,15.2,12.4,27.6,27.6,27.6h4.8v-8.2h-4.8c-10.7,0-19.4-8.7-19.4-19.4c0-9.1,6.3-16.9,15-18.9c1.5-0.4,3.1-0.6,4.8-0.6  c1.4,0,2.8,0.2,4.1,0.4c-0.2-1.5-0.4-3-0.4-4.5c0-15,12.2-27.3,27.3-27.3c2.2,0,4.3,0.3,6.4,0.8C105.3,47.6,113.8,56.9,115.1,68.4z  "></path></g></svg>